Coordinates
version=1
nRows=23
nColumns=34
inDegrees=no

Units are S.I. units (second, meters, Newtons, ...)
If the header above contains a line with 'inDegrees', this indicates whether rotational values are in degrees (yes) or radians (no).

endheader
time	pelvis_tilt	pelvis_list	pelvis_rotation	pelvis_tx	pelvis_ty	pelvis_tz	hip_flexion_r	hip_adduction_r	hip_rotation_r	knee_angle_r	ankle_angle_r	subtalar_angle_r	mtp_angle_r	hip_flexion_l	hip_adduction_l	hip_rotation_l	knee_angle_l	ankle_angle_l	subtalar_angle_l	mtp_angle_l	lumbar_extension	lumbar_bending	lumbar_rotation	arm_flex_r	arm_add_r	arm_rot_r	elbow_flex_r	pro_sup_r	arm_flex_l	arm_add_l	arm_rot_l	elbow_flex_l	pro_sup_l
0.89	0.0210004	0.034888	-0.0468354	0.942255	0.966493	-0.266884	0.489182	-0.14745	-0.171799	0.837769	0.102267	-0.248373	0	0.00043992	0.0428193	-0.164705	0.129209	0.189032	-0.123043	0	-0.121585	-0.0455496	-0.0957688	-0.150451	-0.0762893	-0.272845	0.430607	2.09	0.138792	-0.1676	-0.0908711	0.663047	2.09
0.9	0.0204378	0.0332089	-0.0451335	0.953769	0.966264	-0.267508	0.496707	-0.142961	-0.186397	0.785418	0.124814	-0.215633	0	-0.0189728	0.0435731	-0.158753	0.11729	0.191882	-0.130148	0	-0.121433	-0.0424708	-0.100461	-0.162871	-0.0750677	-0.277268	0.423464	2.09	0.151738	-0.170161	-0.0816938	0.681362	2.09
0.91	0.0198991	0.0322546	-0.0428225	0.965346	0.965742	-0.268134	0.502209	-0.140206	-0.203869	0.731481	0.146388	-0.179312	0	-0.0379678	0.0449418	-0.15149	0.106159	0.194443	-0.138969	0	-0.121308	-0.0401482	-0.105901	-0.175494	-0.0737988	-0.28222	0.418729	2.09	0.163973	-0.173147	-0.0726606	0.700114	2.09
0.92	0.0194186	0.0320151	-0.0398694	0.976994	0.964945	-0.268759	0.505724	-0.139021	-0.224298	0.676424	0.166758	-0.139006	0	-0.056441	0.0468048	-0.143444	0.0961692	0.197396	-0.1483	0	-0.121269	-0.0385659	-0.112106	-0.188243	-0.0724055	-0.288078	0.416165	2.09	0.175504	-0.176531	-0.0637208	0.719178	2.09
0.93	0.0190224	0.032463	-0.0363192	0.988724	0.963889	-0.269372	0.50737	-0.139138	-0.247535	0.620798	0.185523	-0.0951793	0	-0.0742929	0.0490588	-0.135106	0.0876456	0.201253	-0.157192	0	-0.121343	-0.0377023	-0.118964	-0.201026	-0.0708173	-0.295146	0.415396	2.09	0.186397	-0.180207	-0.0549351	0.73832	2.09
0.94	0.0186904	0.0335272	-0.0323039	1.00054	0.962597	-0.269951	0.507432	-0.140149	-0.273057	0.565268	0.202343	-0.0491275	0	-0.0914237	0.0515932	-0.12692	0.0807963	0.206291	-0.16502	0	-0.121512	-0.037505	-0.126252	-0.213733	-0.0689896	-0.303528	0.415994	2.09	0.196735	-0.184023	-0.0464364	0.757296	2.09
0.95	0.0183544	0.0351002	-0.0280062	1.01243	0.96109	-0.270465	0.506329	-0.14157	-0.299951	0.510573	0.217164	-0.00263255	0	-0.107704	0.0542841	-0.119287	0.0757491	0.212577	-0.171416	0	-0.121719	-0.037895	-0.13369	-0.22623	-0.0668963	-0.313153	0.417582	2.09	0.206595	-0.187847	-0.0383353	0.775914	2.09
0.96	0.0179077	0.0370381	-0.0236043	1.02438	0.959396	-0.270882	0.504532	-0.142922	-0.327022	0.457426	0.230249	0.042403	0	-0.122994	0.0569789	-0.112509	0.0725408	0.219995	-0.176204	0	-0.121878	-0.0387608	-0.141011	-0.238371	-0.0645279	-0.323803	0.419875	2.09	0.216017	-0.191588	-0.0306736	0.794051	2.09
0.97	0.0172348	0.0391779	-0.0192303	1.03637	0.957543	-0.27117	0.502455	-0.143802	-0.35299	0.406443	0.24202	0.084225	0	-0.137174	0.0594968	-0.106748	0.0711436	0.228313	-0.179308	0	-0.121897	-0.0399676	-0.148016	-0.250007	-0.0618944	-0.335157	0.42265	2.09	0.225	-0.1952	-0.0234403	0.811625	2.09
0.98	0.01625	0.0413533	-0.0149571	1.0484	0.955561	-0.271304	0.500376	-0.143931	-0.376679	0.358139	0.25283	0.121381	0	-0.150176	0.0616381	-0.102053	0.0714961	0.237249	-0.180654	0	-0.121702	-0.0413654	-0.15458	-0.260996	-0.0590333	-0.346832	0.425689	2.09	0.233504	-0.198641	-0.01662	0.828545	2.09
0.99	0.0150596	0.0435939	-0.0105789	1.06047	0.953485	-0.271309	0.498481	-0.144868	-0.403629	0.314475	0.266169	0.163133	0	-0.162012	0.0633101	-0.0994839	0.0738594	0.247676	-0.177706	0	-0.121369	-0.0428935	-0.160477	-0.271626	-0.0553542	-0.3623	0.429961	2.09	0.241844	-0.201769	-0.00953532	0.844223	2.09
1	0.0132929	0.0452549	-0.00679886	1.07256	0.951348	-0.271066	0.496638	-0.141772	-0.414933	0.271803	0.272363	0.179673	0	-0.172692	0.0640358	-0.0963726	0.0772944	0.256319	-0.176704	0	-0.120543	-0.0441427	-0.166068	-0.280608	-0.0529805	-0.369348	0.431397	2.09	0.248836	-0.204686	-0.0042936	0.859844	2.09
1.01	0.0116312	0.0465784	-0.00302699	1.08472	0.9492	-0.270687	0.494499	-0.138754	-0.425384	0.234109	0.279189	0.195022	0	-0.182792	0.0638921	-0.0945646	0.0822716	0.265196	-0.172957	0	-0.119835	-0.0450447	-0.170782	-0.289028	-0.0500899	-0.379181	0.433348	2.09	0.255501	-0.207019	0.000979326	0.873995	2.09
1.02	0.0101411	0.0474379	0.000578134	1.09698	0.94707	-0.270167	0.492035	-0.135373	-0.432633	0.201738	0.285255	0.205942	0	-0.19239	0.0627406	-0.0944964	0.0888076	0.274255	-0.166149	0	-0.11924	-0.0454707	-0.17467	-0.296589	-0.0473369	-0.388495	0.434606	2.09	0.261488	-0.208663	0.0057467	0.886858	2.09
1.03	0.00904863	0.0477432	0.00394026	1.10936	0.944994	-0.269522	0.489053	-0.131661	-0.435837	0.175369	0.290236	0.211784	0	-0.201716	0.0604818	-0.0966144	0.0969677	0.283581	-0.155805	0	-0.118928	-0.045265	-0.177662	-0.303245	-0.0449101	-0.396796	0.434963	2.09	0.266676	-0.209479	0.00983885	0.898425	2.09
1.04	0.00851437	0.0474562	0.00701932	1.12189	0.942997	-0.268768	0.485489	-0.127859	-0.434988	0.155802	0.294409	0.213201	0	-0.210861	0.0570607	-0.101329	0.106931	0.293268	-0.14147	0	-0.119015	-0.0443195	-0.179728	-0.308996	-0.0429026	-0.404086	0.434505	2.09	0.270962	-0.209341	0.013095	0.908688	2.09
1.05	0.00855682	0.0465624	0.00980625	1.1346	0.941095	-0.267916	0.481464	-0.124247	-0.430833	0.143706	0.298319	0.211641	0	-0.219682	0.0524246	-0.108923	0.119002	0.303331	-0.12286	0	-0.119482	-0.0425633	-0.180915	-0.313849	-0.0413618	-0.410517	0.433472	2.09	0.274224	-0.208149	0.0152505	0.917649	2.09
1.06	0.00908579	0.04486	0.0122691	1.14747	0.939292	-0.266942	0.47702	-0.120512	-0.422997	0.138809	0.301531	0.206048	0	-0.227082	0.0455914	-0.126233	0.135336	0.318482	-0.0886241	0	-0.120217	-0.0397758	-0.181254	-0.317807	-0.0402053	-0.416745	0.43228	2.09	0.276359	-0.205843	0.0159627	0.925308	2.09
1.07	0.00968947	0.0425375	0.0144861	1.16051	0.937569	-0.265864	0.472976	-0.117318	-0.415684	0.14154	0.305038	0.201756	0	-0.233436	0.0374765	-0.144065	0.153981	0.331471	-0.0546546	0	-0.120738	-0.0361407	-0.181054	-0.320834	-0.0396348	-0.421946	0.430864	2.09	0.277103	-0.202416	0.0147643	0.931734	2.09
1.08	0.0101915	0.0396227	0.0164372	1.17371	0.935929	-0.264665	0.469506	-0.114471	-0.409735	0.150731	0.307633	0.198296	0	-0.238721	0.0284346	-0.159065	0.174391	0.339962	-0.0264432	0	-0.120858	-0.0317045	-0.180456	-0.32289	-0.0395991	-0.426495	0.429364	2.09	0.276336	-0.19797	0.0114852	0.936947	2.09
1.09	0.0103724	0.0358403	0.0180028	1.18705	0.934373	-0.263277	0.466648	-0.111083	-0.404224	0.164321	0.306853	0.192325	0	-0.241701	0.0171052	-0.178929	0.198794	0.348786	0.00862631	0	-0.120343	-0.0262718	-0.179474	-0.323898	-0.0400606	-0.430439	0.427661	2.09	0.273922	-0.192785	0.00624222	0.941034	2.09
1.1	0.0101753	0.0307178	0.0188993	1.2005	0.932911	-0.26161	0.464077	-0.105548	-0.395319	0.179488	0.299081	0.176737	0	-0.241677	0.00153579	-0.211049	0.228996	0.361439	0.0618644	0	-0.119123	-0.0194305	-0.177642	-0.323977	-0.0405652	-0.436119	0.426283	2.09	0.270036	-0.187194	-2.50921e-05	0.943732	2.09
1.11	0.00993408	0.0263332	0.0194113	1.21405	0.931659	-0.259862	0.462402	-0.101827	-0.393418	0.197892	0.288783	0.168838	0	-0.242784	-0.0096604	-0.215072	0.254737	0.353547	0.0687992	0	-0.117728	-0.0133421	-0.176329	-0.322314	-0.0426671	-0.434785	0.422404	2.09	0.264054	-0.181693	-0.00780949	0.945841	2.09
